<?xml version="1.0" encoding="UTF-8" standalone="no"?>
<svg
   width="24"
   height="24"
   viewBox="0 0 24 24"
   fill="none"
   stroke="currentColor"
   stroke-width="2"
   stroke-linecap="round"
   stroke-linejoin="round"
   class="lucide lucide-monitor-smartphone"
   version="1.1"
   id="svg3"
   sodipodi:docname="monitor-smartphone.svg"
   inkscape:version="1.3 (0e150ed6c4, 2023-07-21)"
   xmlns:inkscape="http://www.inkscape.org/namespaces/inkscape"
   xmlns:sodipodi="http://sodipodi.sourceforge.net/DTD/sodipodi-0.dtd"
   xmlns="http://www.w3.org/2000/svg"
   xmlns:svg="http://www.w3.org/2000/svg">
  <defs
     id="defs3" />
  <sodipodi:namedview
     id="namedview3"
     pagecolor="#ffffff"
     bordercolor="#666666"
     borderopacity="1.0"
     inkscape:showpageshadow="2"
     inkscape:pageopacity="0.0"
     inkscape:pagecheckerboard="0"
     inkscape:deskcolor="#d1d1d1"
     inkscape:zoom="10.5"
     inkscape:cx="4.3809524"
     inkscape:cy="17.666667"
     inkscape:window-width="1366"
     inkscape:window-height="705"
     inkscape:window-x="-8"
     inkscape:window-y="-8"
     inkscape:window-maximized="1"
     inkscape:current-layer="svg3" />
  <path
     d="M 18.58758,5.6509903 V 4.3717914 A 1.8026094,1.2791989 0 0 0 16.784971,3.0925924 H 5.9693137 a 1.8026094,1.2791989 0 0 0 -1.8026094,1.279199 v 4.477196 a 1.8026094,1.2791989 0 0 0 1.8026094,1.2791996 h 7.2104373"
     id="path1"
     style="stroke-width:1.51853" />
  <path
     d="m 11.900952,12.106306 v -2.002315 1.592751"
     id="path2"
     style="stroke-width:1.15363" />
  <path
     d="M 9.9269257,12.051948 H 13.216969"
     id="path3"
     style="stroke-width:1.31602" />
  <rect
     width="3.9480517"
     height="6.5800862"
     x="15.849004"
     y="8.2554111"
     rx="1.3160174"
     id="rect3"
     style="stroke-width:1.31602" />
  <line
     x1="5.6904764"
     x2="8.0714293"
     y1="17.214287"
     y2="17.214287"
     id="line1"
     style="stroke-width:1.19048" />
  <line
     x1="6.8809519"
     x2="6.8809519"
     y1="16.023809"
     y2="18.404762"
     id="line2"
     style="stroke-width:1.19048" />
  <line
     x1="11.047618"
     x2="11.053571"
     y1="17.809525"
     y2="17.809525"
     id="line3"
     style="stroke-width:1.19048" />
  <line
     x1="12.833333"
     x2="12.839286"
     y1="16.619047"
     y2="16.619047"
     id="line4"
     style="stroke-width:1.19048" />
  <path
     d="M 12.428572,13.642857 H 6.0952379 a 2.3809524,2.3809524 0 0 0 -2.367857,2.136905 c -0.0036,0.03095 -0.006,0.06012 -0.01012,0.09048 -0.048213,0.401191 -0.407737,3.401191 -0.407737,4.320238 a 1.7857143,1.7857143 0 0 0 1.785714,1.785714 c 0.595238,0 0.892857,-0.297619 1.190476,-0.595238 l 0.841667,-0.841666 a 1.1904762,1.1904762 0 0 1 0.841667,-0.34881 h 2.5857141 a 1.1904762,1.1904762 0 0 1 0.841667,0.34881 l 0.841666,0.841666 c 0.297619,0.297619 0.595239,0.595238 1.190477,0.595238 a 1.7857143,1.7857143 0 0 0 1.785714,-1.785714 c 0,-0.919643 -0.359524,-3.919047 -0.407738,-4.320238 -0.0042,-0.02976 -0.0065,-0.05952 -0.01012,-0.08988 a 2.3809524,2.3809524 0 0 0 -2.367857,-2.1375 z"
     id="path4"
     style="stroke-width:1.19048" />
</svg>
